<svg id="图层_8" data-name="图层 8" xmlns="http://www.w3.org/2000/svg" viewBox="0 0 796.09 628.08"><defs><style>.cls-1{fill:#fff;}</style></defs><title>output</title><rect class="cls-1" x="148.89" y="171.47" width="50.87" height="258.6"/><path class="cls-1" d="M330.62,520.3q43.44,0,68.88-25.43t25.43-68.4q0-40.91-24.8-65.16t-67-24.25q-43.6,0-69.43,24.64t-25.83,67.77q0,42,25,66.43T330.62,520.3ZM300.68,390q11.14-13.74,31.2-13.74,41.23,0,41.23,51.18,0,53.71-40.92,53.71-42.65,0-42.65-52.29Q289.55,403.72,300.68,390Z" transform="translate(-2.91 -85.96)"/><path class="cls-1" d="M523.19,520.3q36.49,0,55-29.86H579V505q0,25.91-15.4,40.52t-42.73,14.61q-27.65,0-54.82-15.8v43.6Q486.85,598,522.24,598q52.13,0,79.86-26.3t27.72-75V341.32H579v20.85h-0.79Q562,337.05,529.82,337.05q-35.54,0-57.42,26.3t-21.88,70.38q0,39.5,19.83,63T523.19,520.3ZM513,390.84q10.82-14.61,29.46-14.61a33.77,33.77,0,0,1,26.46,11.93q10.51,11.93,10.51,29.3v15.32q0,21.49-10.9,34.91t-28.28,13.43q-17.22,0-27.65-13.19t-10.43-36.1Q502.18,405.46,513,390.84Z" transform="translate(-2.91 -85.96)"/><path class="cls-1" d="M778.92,86v0.17H23V86H2.91V714H799V86H778.92Zm-77.37,20.25h69.62v65.58H701.54V106.21Zm-86.2,0H685v65.58H615.34V106.21Zm-86.2,0h69.62v65.58H529.14V106.21ZM778.92,694H23V189.11H778.92V694Z" transform="translate(-2.91 -85.96)"/></svg>