<svg id="图层_2" data-name="图层 2" xmlns="http://www.w3.org/2000/svg" viewBox="0 0 1050.47 829.37"><defs><style>.cls-1{fill:#fff;}</style></defs><title>progrem</title><text x="-12.58" y="39.49"/><path class="cls-1" d="M402.46,10.12C187.14,10.12,12.58,184.68,12.58,400S187.14,789.88,402.46,789.88,792.33,615.32,792.33,400,617.78,10.12,402.46,10.12Zm-2.12,693.5C232.65,703.63,96.71,567.69,96.71,400S232.65,96.37,400.34,96.37,704,232.31,704,400,568,703.63,400.34,703.63Z" transform="translate(-12.58 39.49)"/><polygon class="cls-1" points="542.11 234.8 396.58 380.33 251.05 234.8 191.89 293.96 337.42 439.49 191.89 585.02 251.05 644.18 396.58 498.65 542.11 644.18 601.27 585.02 455.74 439.49 601.27 293.96 542.11 234.8"/></svg>