<svg id="图层_3" data-name="图层 3" xmlns="http://www.w3.org/2000/svg" viewBox="0 0 778.35 663.57"><defs><style>.cls-1{fill:#fff;}</style></defs><title>debug</title><path class="cls-1" d="M755.92,245c-10.51-3.52-24.65,2.34-27.5,13.72-6.76,27-12.84,54.33-20.3,81.17-0.26,1-.59,2-0.91,3-6.13,1.92-13.15,2.4-19.37,3.54l-41,7.5-49.35,9L587,313.1a179.93,179.93,0,0,0-17.88-48.84,683.14,683.14,0,0,0,113.34-56.44c10.89-6.78,20.5-14,24.62-26.74,3.59-11.15,5.08-23.43,7.31-34.91q6.43-33,11.31-66.36c1.71-11.67-9.35-22.37-20.33-23C693,56,684,65.49,682.32,77.1c-3,20.35-6.34,40.65-10.24,60.85-1.72,8.91-4.3,18-5.6,27a14.59,14.59,0,0,0-.81,2.22h0s0,0,0,0l-0.8.5c-3.82,2.42-7.69,4.76-11.57,7.09a688.68,688.68,0,0,1-107.31,52,15.27,15.27,0,0,0-2.58,1.32c-41.93-45.76-106.3-69-171.13-55.47h0l-0.29.07-0.29.06h0c-64.83,13.57-114.45,60.73-134.5,119.46a15.27,15.27,0,0,0-2.89-.17,688.68,688.68,0,0,1-119.17-4.63c-4.49-.57-9-1.17-13.44-1.85l-0.93-.14v0h0a14.59,14.59,0,0,0-1.63-1.7c-4.81-7.77-10.83-15.06-16-22.53Q65.6,235.86,49.32,209.64c-6.21-9.95-18.21-15.05-29.27-9.38-9.78,5-15.62,19.26-9.38,29.27q17.83,28.56,37,56.25c6.66,9.63,12.94,20.27,20.7,29,8.88,10,20.58,12.78,33.27,14.61a683.14,683.14,0,0,0,126.46,6.23,179.93,179.93,0,0,0,3.21,51.91l10.44,49.88L192.93,449l-40.59,9.59c-6.15,1.45-12.78,3.83-19.16,4.53-0.7-.79-1.4-1.58-2.06-2.42C113.52,439.11,97,416.54,80,394.49c-7.17-9.28-22.47-9-30.69-1.54-9.26,8.38-8.74,21.37-1.54,30.69l27.51,35.6c8.65,11.2,16.72,23.55,26.43,33.86,12.46,13.23,28.57,15.17,45.59,11.31,14.49-3.28,28.93-6.84,43.39-10.25l60-14.18,9.15,43.68A180.07,180.07,0,0,0,312,617.4c-17.25,13.09-34.76,25.71-52.38,37.62q-14.11,9.54-28.47,18.71l-2.08,1.33C225,672,221,668.77,217,665.63l-58.13-45.12c-9.27-7.2-24-3-30.07,6.3-6.86,10.49-3,22.86,6.3,30.07l62.61,48.59c12.09,9.39,23.7,18.12,39.9,13.62,12.66-3.51,24.38-13.64,35.2-20.86q38.6-25.76,75.41-54A180.55,180.55,0,0,0,474.53,664h0l0.29-.06,0.29-.06h0A180.55,180.55,0,0,0,582.9,595.06q45,11.12,90.75,19.23c12.81,2.27,27.61,6.85,40.62,5,16.64-2.38,23.77-15,31.08-28.48l37.85-69.62c5.62-10.34,4.19-23.21-6.3-30.07-9.26-6.05-24.46-4-30.07,6.3L711.68,562c-2.45,4.5-4.84,9-7.34,13.51l-2.44-.38q-16.83-2.64-33.58-5.72c-20.91-3.84-42-8.38-63.07-13.45A180.07,180.07,0,0,0,615.5,449.19l-9.15-43.68L667,394.42c14.62-2.67,29.27-5.2,43.86-8,17.14-3.3,31.12-11.53,37.22-28.65,4.75-13.34,7.19-27.89,10.62-41.62l10.91-43.65C772.49,261.07,767.76,249,755.92,245Zm-89.65-78.14q1-.59,0,0ZM100,285.41l0.05,0Q98.92,285.25,100,285.41Z" transform="translate(-8.1 -56.73)"/></svg>