<svg id="图层_1_复制_2" data-name="图层 1_复制 2" xmlns="http://www.w3.org/2000/svg" viewBox="0 0 796.09 628.08"><defs><style>.cls-1{fill:#fff;}</style></defs><title>terminal</title><text x="-2.91" y="-85.96"/><path class="cls-1" d="M778.92,86v0.17H23V86H2.91V714H799V86H778.92Zm-77.37,20.25h69.62v65.58H701.54V106.21Zm-86.2,0H685v65.58H615.34V106.21Zm-86.2,0h69.62v65.58H529.14V106.21ZM778.92,694H23V189.11H778.92V694Z" transform="translate(-2.91 -85.96)"/><polygon class="cls-1" points="281.43 238.88 74.41 138.38 74.41 189.35 223.19 255.25 223.19 256.29 74.41 317.21 74.41 367.98 281.43 272.45 281.43 238.88"/><rect class="cls-1" x="329.36" y="339.07" width="213.99" height="33"/></svg>